<svg width="93" height="93" viewBox="0 0 93 93" fill="none" xmlns="http://www.w3.org/2000/svg">
<circle cx="45" cy="48" r="45" fill="#B48E2E"/>
<circle cx="48" cy="45" r="45" fill="#FEC942"/>
<path d="M70.5 58.5625V24.4375C70.5 23.0867 69.4133 22 68.0625 22H34.75C29.3672 22 25 26.3672 25 31.75V64.25C25 69.6328 29.3672 74 34.75 74H68.0625C69.4133 74 70.5 72.9133 70.5 71.5625V69.9375C70.5 69.1758 70.1445 68.4852 69.5961 68.0383C69.1695 66.4742 69.1695 62.0156 69.5961 60.4516C70.1445 60.0148 70.5 59.3242 70.5 58.5625ZM38 35.6094C38 35.2742 38.2742 35 38.6094 35H60.1406C60.4758 35 60.75 35.2742 60.75 35.6094V37.6406C60.75 37.9758 60.4758 38.25 60.1406 38.25H38.6094C38.2742 38.25 38 37.9758 38 37.6406V35.6094ZM38 42.1094C38 41.7742 38.2742 41.5 38.6094 41.5H60.1406C60.4758 41.5 60.75 41.7742 60.75 42.1094V44.1406C60.75 44.4758 60.4758 44.75 60.1406 44.75H38.6094C38.2742 44.75 38 44.4758 38 44.1406V42.1094ZM63.7359 67.5H34.75C32.9523 67.5 31.5 66.0477 31.5 64.25C31.5 62.4625 32.9625 61 34.75 61H63.7359C63.543 62.7367 63.543 65.7633 63.7359 67.5Z" fill="white"/>
</svg>
