<svg width="93" height="93" viewBox="0 0 93 93" fill="none" xmlns="http://www.w3.org/2000/svg">
<circle cx="45" cy="48" r="45" fill="#798D32"/>
<circle cx="48" cy="45" r="45" fill="#B2D149"/>
<path d="M16 41.3125V68.4062C16 69.2868 16.7132 70 17.5937 70H25.5625V38.125H19.1875C17.4274 38.125 16 39.5524 16 41.3125ZM51.8594 36.5313H49.4687V32.5469C49.4687 32.1066 49.1121 31.75 48.6719 31.75H47.0781C46.6378 31.75 46.2812 32.1066 46.2812 32.5469V38.9219C46.2812 39.3622 46.6378 39.7188 47.0781 39.7188H51.8594C52.2996 39.7188 52.6562 39.3622 52.6562 38.9219V37.3281C52.6562 36.8879 52.2996 36.5313 51.8594 36.5313ZM65.5806 30.1602L49.6431 19.5349C49.1194 19.1861 48.5042 19 47.875 19C47.2458 19 46.6306 19.1861 46.1069 19.5349L30.1694 30.1602C29.7329 30.4513 29.3749 30.8456 29.1273 31.3081C28.8797 31.7707 28.7501 32.2872 28.75 32.8118V70H41.5V55.6563C41.5 54.7757 42.2132 54.0625 43.0937 54.0625H52.6562C53.5368 54.0625 54.25 54.7757 54.25 55.6563V70H67V32.8128C67 31.747 66.4671 30.7509 65.5806 30.1602ZM47.875 44.5C43.4743 44.5 39.9062 40.932 39.9062 36.5313C39.9062 32.1305 43.4743 28.5625 47.875 28.5625C52.2757 28.5625 55.8437 32.1305 55.8437 36.5313C55.8437 40.932 52.2757 44.5 47.875 44.5ZM76.5625 38.125H70.1875V70H78.1562C79.0368 70 79.75 69.2868 79.75 68.4062V41.3125C79.75 39.5524 78.3226 38.125 76.5625 38.125Z" fill="white"/>
</svg>
