<svg width="93" height="93" viewBox="0 0 93 93" fill="none" xmlns="http://www.w3.org/2000/svg">
<circle cx="45" cy="48" r="45" fill="#65211E"/>
<circle cx="48" cy="45" r="45" fill="#9A312D"/>
<path d="M20.375 44.5H23.5M48.5 16.375V19.5M73.5 44.5H76.625M28.5 24.5L30.6875 26.6875M68.5 24.5L66.3125 26.6875" stroke="white" stroke-width="4.57039" stroke-linecap="round" stroke-linejoin="round"/>
<path d="M39.125 57C36.5015 55.0324 34.5635 52.2891 33.5857 49.1589C32.6079 46.0286 32.6398 42.6701 33.6768 39.5589C34.7139 36.4478 36.7035 33.7418 39.3639 31.8243C42.0243 29.9068 45.2206 28.875 48.5 28.875C51.7794 28.875 54.9757 29.9068 57.6361 31.8243C60.2965 33.7418 62.2861 36.4478 63.3232 39.5589C64.3602 42.6701 64.3921 46.0286 63.4143 49.1589C62.4365 52.2891 60.4985 55.0324 57.875 57C56.6549 58.2078 55.7362 59.6858 55.1933 61.3144C54.6505 62.9431 54.4986 64.6767 54.75 66.375C54.75 68.0326 54.0915 69.6223 52.9194 70.7944C51.7473 71.9665 50.1576 72.625 48.5 72.625C46.8424 72.625 45.2527 71.9665 44.0806 70.7944C42.9085 69.6223 42.25 68.0326 42.25 66.375C42.5014 64.6767 42.3495 62.9431 41.8067 61.3144C41.2638 59.6858 40.3451 58.2078 39.125 57Z" stroke="white" stroke-width="4.57039" stroke-linecap="round" stroke-linejoin="round"/>
<path d="M41.3125 60.1249H55.6875" stroke="white" stroke-width="4.57039" stroke-linecap="round" stroke-linejoin="round"/>
</svg>
