<svg width="267" height="254" viewBox="0 0 267 254" fill="none" xmlns="http://www.w3.org/2000/svg">
<rect x="1" y="1" width="265" height="252" rx="20" fill="#B2D149" stroke="#798D32" stroke-width="2"/>
<path d="M111.37 80C91.605 80.13 75.8708 95.9943 76.0008 115.89C76.0008 135.135 92.1252 151.129 111.5 150.999C131.396 150.999 147.13 134.615 147 115.11C146.74 95.7343 130.876 80 111.37 80ZM111.5 139.166C98.2368 139.166 87.834 128.633 87.834 115.37C87.834 102.366 98.3669 91.8332 111.5 91.9632C124.634 91.9632 135.167 102.496 135.037 115.5C135.037 128.633 124.504 139.166 111.5 139.166ZM189.652 91.183C189.522 86.5018 186.141 83.1208 181.719 82.9908C177.298 82.8608 173.787 86.1117 173.527 90.6629C173.267 93.9138 173.397 97.1646 173.397 100.416C173.527 103.276 174.698 105.617 177.038 107.177C177.948 107.697 178.078 108.218 178.078 109.128V144.237C178.078 145.668 178.599 146.968 179.899 147.618C182.5 148.919 185.1 147.228 185.1 144.107C185.1 132.404 185.1 120.701 184.97 108.998C184.97 108.218 185.23 107.697 186.011 107.177C188.221 105.747 189.391 103.796 189.522 101.196C189.652 99.3752 189.652 97.5548 189.652 95.7343C189.652 94.1738 189.782 92.7434 189.652 91.183ZM168.066 82.9908C167.155 82.9908 166.765 83.641 166.765 84.5512V96.9046H164.555V84.9413C164.555 84.0311 164.425 83.1208 163.384 82.9908C162.084 82.9908 162.214 84.0311 162.214 84.9413V95.3442C162.214 95.8643 162.084 96.3844 162.084 96.7745H159.873V84.8113C159.873 83.9011 159.743 82.9908 158.703 82.9908C157.663 82.9908 157.533 83.9011 157.533 84.6813V96.9046H155.192V84.8113C155.192 84.0311 155.062 82.9908 154.022 82.9908C152.982 82.9908 152.852 83.9011 152.852 84.8113C152.852 89.8827 152.722 94.954 152.852 100.025C152.852 103.016 154.022 105.617 156.623 107.177C157.403 107.697 157.533 108.218 157.533 108.998V144.497C157.533 146.448 158.833 147.878 160.654 148.008C162.344 148.268 164.035 147.098 164.425 145.278C164.555 144.627 164.555 143.977 164.555 143.327V109.258C164.555 108.218 164.685 107.567 165.595 107.047C167.806 105.617 168.976 103.406 169.106 100.806V84.5512C169.106 83.771 168.846 83.1208 168.066 82.9908ZM111.37 93.3936C99.2771 93.3936 89.2644 103.276 89.2644 115.37C89.2644 127.723 99.1471 137.736 111.37 137.736C123.464 137.736 133.606 127.723 133.606 115.76C133.606 103.276 123.854 93.3936 111.37 93.3936Z" fill="white"/>
</svg>
