<svg width="267" height="254" viewBox="0 0 267 254" fill="none" xmlns="http://www.w3.org/2000/svg">
<rect width="267" height="254" rx="21" fill="#9A312D"/>
<path d="M69.2383 137.3C65.4383 137.3 62.5583 136.46 60.5983 134.78C58.6583 133.1 57.6883 130.62 57.6883 127.34C57.6883 124.06 58.6483 121.58 60.5683 119.9C62.5083 118.22 65.3783 117.38 69.1783 117.38C70.4183 117.38 71.5083 117.47 72.4483 117.65C73.4083 117.83 74.3483 118.09 75.2683 118.43V124.76C73.4483 123.92 71.5783 123.5 69.6583 123.5C68.2583 123.5 67.1483 123.78 66.3283 124.34C65.5083 124.88 65.0983 125.88 65.0983 127.34C65.0983 128.8 65.5183 129.81 66.3583 130.37C67.1983 130.91 68.3183 131.18 69.7183 131.18C71.6383 131.18 73.5083 130.76 75.3283 129.92V136.25C74.4083 136.57 73.4683 136.82 72.5083 137C71.5683 137.2 70.4783 137.3 69.2383 137.3ZM86.5832 137.3C84.4032 137.3 82.5432 136.98 81.0032 136.34C79.4632 135.68 78.2832 134.62 77.4632 133.16C76.6432 131.7 76.2332 129.76 76.2332 127.34C76.2332 124.9 76.6432 122.96 77.4632 121.52C78.2832 120.06 79.4632 119.01 81.0032 118.37C82.5432 117.71 84.4032 117.38 86.5832 117.38C88.7632 117.38 90.6232 117.71 92.1632 118.37C93.7032 119.01 94.8832 120.06 95.7032 121.52C96.5232 122.96 96.9332 124.9 96.9332 127.34C96.9332 129.76 96.5232 131.7 95.7032 133.16C94.8832 134.62 93.7032 135.68 92.1632 136.34C90.6232 136.98 88.7632 137.3 86.5832 137.3ZM86.5832 131.15C87.6432 131.15 88.3932 130.87 88.8332 130.31C89.2932 129.73 89.5232 128.74 89.5232 127.34C89.5232 125.94 89.2932 124.96 88.8332 124.4C88.3932 123.82 87.6432 123.53 86.5832 123.53C85.5232 123.53 84.7632 123.82 84.3032 124.4C83.8632 124.96 83.6432 125.94 83.6432 127.34C83.6432 128.74 83.8632 129.73 84.3032 130.31C84.7632 130.87 85.5232 131.15 86.5832 131.15ZM98.425 137V117.68H104.515L109.915 125.24V117.68H117.175V137H111.055L105.685 129.44V137H98.425ZM123.154 137V122.9H118.234V117.68H135.334V122.9H130.414V137H123.154ZM133.245 137L140.685 117.68H148.215L155.655 137H148.095L146.715 133.4H142.185L140.805 137H133.245ZM142.965 128.45H145.905L144.435 124.76L142.965 128.45ZM158.486 137V122.9H153.566V117.68H170.666V122.9H165.746V137H158.486ZM181.183 137.3C179.003 137.3 177.143 136.98 175.603 136.34C174.063 135.68 172.883 134.62 172.063 133.16C171.243 131.7 170.833 129.76 170.833 127.34C170.833 124.9 171.243 122.96 172.063 121.52C172.883 120.06 174.063 119.01 175.603 118.37C177.143 117.71 179.003 117.38 181.183 117.38C183.363 117.38 185.223 117.71 186.763 118.37C188.303 119.01 189.483 120.06 190.303 121.52C191.123 122.96 191.533 124.9 191.533 127.34C191.533 129.76 191.123 131.7 190.303 133.16C189.483 134.62 188.303 135.68 186.763 136.34C185.223 136.98 183.363 137.3 181.183 137.3ZM181.183 131.15C182.243 131.15 182.993 130.87 183.433 130.31C183.893 129.73 184.123 128.74 184.123 127.34C184.123 125.94 183.893 124.96 183.433 124.4C182.993 123.82 182.243 123.53 181.183 123.53C180.123 123.53 179.363 123.82 178.903 124.4C178.463 124.96 178.243 125.94 178.243 127.34C178.243 128.74 178.463 129.73 178.903 130.31C179.363 130.87 180.123 131.15 181.183 131.15ZM199.715 137.3C198.355 137.3 197.045 137.19 195.785 136.97C194.525 136.73 193.465 136.39 192.605 135.95V130.52C193.545 130.98 194.605 131.36 195.785 131.66C196.965 131.96 198.015 132.11 198.935 132.11C199.535 132.11 200.005 132.04 200.345 131.9C200.685 131.74 200.855 131.52 200.855 131.24C200.855 130.88 200.535 130.6 199.895 130.4C199.255 130.2 198.415 129.91 197.375 129.53C196.135 129.05 195.155 128.55 194.435 128.03C193.715 127.51 193.195 126.89 192.875 126.17C192.575 125.43 192.425 124.51 192.425 123.41C192.425 119.39 195.255 117.38 200.915 117.38C201.555 117.38 202.265 117.43 203.045 117.53C203.845 117.61 204.615 117.72 205.355 117.86C206.115 118 206.755 118.15 207.275 118.31V123.77C206.175 123.31 205.205 123 204.365 122.84C203.525 122.68 202.785 122.6 202.145 122.6C201.645 122.6 201.135 122.65 200.615 122.75C200.095 122.83 199.835 123.03 199.835 123.35C199.835 123.61 200.065 123.82 200.525 123.98C200.985 124.12 201.715 124.33 202.715 124.61C204.315 125.05 205.515 125.58 206.315 126.2C207.115 126.8 207.645 127.52 207.905 128.36C208.185 129.18 208.325 130.13 208.325 131.21C208.325 133.05 207.605 134.53 206.165 135.65C204.725 136.75 202.575 137.3 199.715 137.3Z" fill="white"/>
</svg>
