<svg width="16" height="16" viewBox="0 0 16 16" fill="none" xmlns="http://www.w3.org/2000/svg">
<path d="M7.99044 0C9.09916 0 10.1378 0.210275 11.1063 0.630824C12.0749 1.05137 12.9223 1.62166 13.6487 2.3417C14.3751 3.06173 14.9486 3.90601 15.3692 4.87455C15.7897 5.84309 16 6.88172 16 7.99044C16 9.09916 15.7897 10.1378 15.3692 11.1063C14.9486 12.0749 14.3751 12.9223 13.6487 13.6487C12.9223 14.3751 12.0749 14.9486 11.1063 15.3692C10.1378 15.7897 9.09916 16 7.99044 16C6.88172 16 5.84309 15.7897 4.87455 15.3692C3.90601 14.9486 3.06173 14.3751 2.3417 13.6487C1.62166 12.9223 1.05137 12.0749 0.630824 11.1063C0.210275 10.1378 0 9.09916 0 7.99044C0 6.88172 0.210275 5.84309 0.630824 4.87455C1.05137 3.90601 1.62166 3.06173 2.3417 2.3417C3.06173 1.62166 3.90601 1.05137 4.87455 0.630824C5.84309 0.210275 6.88172 0 7.99044 0ZM5.50538 6.00239H3.49821V12.5018H5.50538V6.00239ZM4.49223 5.48626C4.7726 5.48626 5.01155 5.39068 5.20908 5.19952C5.40661 5.00836 5.50538 4.7726 5.50538 4.49223C5.50538 4.21187 5.40661 3.9761 5.20908 3.78495C5.01155 3.59379 4.7726 3.49821 4.49223 3.49821C4.21187 3.49821 3.9761 3.59379 3.78495 3.78495C3.59379 3.9761 3.49821 4.21187 3.49821 4.49223C3.49821 4.7726 3.59379 5.00836 3.78495 5.19952C3.9761 5.39068 4.21187 5.48626 4.49223 5.48626ZM12.5018 8.73596C12.5018 8.27718 12.3744 7.82796 12.1195 7.38829C11.8646 6.94863 11.5333 6.6141 11.1254 6.38471C10.7559 6.1808 10.3258 6.07248 9.83512 6.05974C9.34448 6.04699 8.89526 6.12983 8.48746 6.30824V6.00239H6.4994V12.5018H8.48746V8.52569L9.32855 8.12425C9.43051 8.07328 9.5675 8.04779 9.73955 8.04779C9.91159 8.04779 10.0486 8.07965 10.1505 8.14337C10.227 8.1816 10.3035 8.26444 10.3799 8.39188C10.4564 8.51931 10.4946 8.63401 10.4946 8.73596V12.5018H12.5018V8.73596Z" fill="black"/>
</svg>
